HIERARCHY
ROOT pelvis
{
  OFFSET 0 0 0
  CHANNELS 6 Xposition Yposition Zposition Zrotation Xrotation Yrotation
  JOINT spine_01
  {
    OFFSET 10.8089 -0.851415 0
    CHANNELS 3 Zrotation Xrotation Yrotation
    JOINT spine_02
    {
      OFFSET 18.8753 3.80116 0
      CHANNELS 3 Zrotation Xrotation Yrotation
      JOINT spine_03
      {
        OFFSET 13.4073 0.420477 0
        CHANNELS 3 Zrotation Xrotation Yrotation
        JOINT clavicle_l
        {
          OFFSET 11.8837 -2.73209 -3.78198
          CHANNELS 3 Zrotation Xrotation Yrotation
          JOINT upperarm_l
          {
            OFFSET 15.7849 0 0
            CHANNELS 3 Zrotation Xrotation Yrotation
            JOINT lowerarm_l
            {
              OFFSET 30.3399 0 0
              CHANNELS 3 Zrotation Xrotation Yrotation
              JOINT hand_l
              {
                OFFSET 26.9751 0 0
                CHANNELS 3 Zrotation Xrotation Yrotation
                End Site
                {
                  OFFSET 0 0 0
                }
              }
            }
          }
        }
        JOINT clavicle_r
        {
          OFFSET 11.8838 -2.7321 3.782
          CHANNELS 3 Zrotation Xrotation Yrotation
          JOINT upperarm_r
          {
            OFFSET -15.7848 0 0
            CHANNELS 3 Zrotation Xrotation Yrotation
            JOINT lowerarm_r
            {
              OFFSET -30.34 0 0
              CHANNELS 3 Zrotation Xrotation Yrotation
              JOINT hand_r
              {
                OFFSET -26.9752 2.55532e-005 0
                CHANNELS 3 Zrotation Xrotation Yrotation
                End Site
                {
                  OFFSET 0 0 0
                }
              }
            }
          }
        }
        JOINT neck_01
        {
          OFFSET 16.5588 -0.355317 0
          CHANNELS 3 Zrotation Xrotation Yrotation
          JOINT head
          {
            OFFSET 9.28362 0.364158 0
            CHANNELS 3 Zrotation Xrotation Yrotation
            End Site
            {
              OFFSET 0 0 0
            }
          }
        }
      }
    }
  }
  JOINT thigh_l
  {
    OFFSET -1.44882 -0.531424 -9.00581
    CHANNELS 3 Zrotation Xrotation Yrotation
    JOINT calf_l
    {
      OFFSET -42.572 0 0
      CHANNELS 3 Zrotation Xrotation Yrotation
      JOINT foot_l
      {
        OFFSET -40.1967 0 0
        CHANNELS 3 Zrotation Xrotation Yrotation
        JOINT ball_l
        {
          OFFSET -10.4538 -16.5779 0.0801573
          CHANNELS 3 Zrotation Xrotation Yrotation
          End Site
          {
            OFFSET 0 0 0
          }
        }
      }
    }
  }
  JOINT thigh_r
  {
    OFFSET -1.44865 -0.531428 9.0058
    CHANNELS 3 Zrotation Xrotation Yrotation
    JOINT calf_r
    {
      OFFSET 42.5723 0 0
      CHANNELS 3 Zrotation Xrotation Yrotation
      JOINT foot_r
      {
        OFFSET 40.1968 0 -1.14441e-005
        CHANNELS 3 Zrotation Xrotation Yrotation
        JOINT ball_r
        {
          OFFSET 10.4538 16.5778 -0.0801582
          CHANNELS 3 Zrotation Xrotation Yrotation
          End Site
          {
            OFFSET 0 0 0
          }
        }
      }
    }
  }
}
MOTION
Frames:	14
Frame Time:	0.0333333
0.0866748 92.3474 -0.496327 137.182 -87.0736 46.2436 -10.4878 0.654945 -0.397945 13.133 0.111564 -0.372764 1.84964 0.101851 -0.378757 -8.61764 23.7179 93.7566 -26.4466 9.00468 76.7051 -18.3439 -6.51257 0.441966 132.354 -86.2411 138.438 170.714 20.0093 95.4376 -39.7718 13.1256 75.1532 -18.0315 -6.51005 0.434588 -23.1266 -74.5001 -19.6992 -23.1879 -0.732063 0.473307 20.3056 -3.82396 5.17373 8.62112 18.0002 -9.36202 -20.936 -10.2665 -0.428331 10.6176 -0.0147042 3.97682 -91.8836 0.00394553 0.00895438 -170.865 20.246 -3.85802 -25.9477 -7.17193 -0.985832 14.738 -0.464712 -2.79805 -91.8836 0.00393566 0.00895012 
0.129481 91.977 -1.50025 109.416 -88.1857 18.4432 -10.9882 0.602194 -0.415531 12.8267 0.0654725 -0.355299 1.54413 0.0585117 -0.35953 -8.64973 23.6237 94.0478 -29.5498 10.3809 74.6568 -22.53 -6.54816 0.538044 -179.816 -84.7021 -172.152 170.729 19.6201 95.6334 -41.3267 14.357 73.6131 -20.5857 -6.5306 0.493614 -32.3127 -74.0681 -27.8022 -23.0959 -0.715069 0.559149 20.5868 -3.5982 5.29804 12.6846 17.0023 -9.51462 -24.9156 -9.25514 -1.02492 11.6768 0.141903 5.03218 -91.8836 0.00394553 0.00895438 -167.339 18.837 -3.84145 -28.4722 -5.81654 -1.41067 15.3032 -0.549997 -2.56018 -91.8836 0.00393566 0.00895012 
0.274877 91.363 -2.82242 41.465 -87.7615 -49.6717 -11.5865 0.44602 -0.244176 12.4847 -0.0192183 -0.324753 1.20275 -0.0237057 -0.324463 -8.67428 23.5053 94.3468 -32.7915 12.2898 72.5516 -26.9668 -6.59338 0.636773 -159.293 -80.4328 -149.405 170.76 19.3289 95.8 -43.3886 16.5043 71.78 -24.7269 -6.56943 0.587262 -44.1988 -72.4142 -38.6152 -22.8784 -0.689274 0.586795 22.171 -3.35976 5.34123 18.1311 15.5985 -9.49066 -29.9447 -8.64025 -1.72044 12.87 0.373306 6.48209 -91.8836 0.00394553 0.00895438 -162.227 17.302 -4.0422 -32.0992 -4.33682 -1.98835 16.1844 -0.598157 -2.19092 -91.8836 0.00393566 0.00895012 
0.606628 90.3619 -4.3799 12.8773 -85.1917 -78.8296 -12.2194 0.257341 0.322847 12.1511 -0.050561 -0.241164 0.869145 -0.0526542 -0.239018 -8.73523 23.4796 94.7458 -35.5689 14.5714 70.6596 -31.2296 -6.64385 0.728002 -149.707 -75.6823 -137.137 170.716 19.2712 96.1511 -44.9047 19.4339 69.4318 -29.9739 -6.62801 0.7013 -55.263 -69.1008 -47.9613 -22.4946 -0.664981 0.556546 24.7757 -3.18266 5.27828 24.4202 13.9197 -8.82005 -35.471 -8.27064 -2.42692 14.287 0.62691 7.66714 -91.8836 0.00394553 0.00895438 -155.191 16.1544 -5.01564 -37.2897 -3.60566 -2.7059 17.5805 -0.554035 -1.81236 -91.8836 0.00393566 0.00895012 
1.12677 88.8733 -6.02392 2.3418 -81.5497 -90.4589 -12.766 0.0634854 1.30406 11.896 0.0381216 -0.0963003 0.612857 0.0364114 -0.098809 -8.88369 23.6558 95.3541 -37.4079 17.1648 69.2151 -35.0428 -6.69458 0.806161 -143.486 -71.6419 -128.176 170.615 19.4301 96.6367 -43.6581 22.3013 66.6514 -36.122 -6.70958 0.827593 -62.6382 -64.7333 -52.9293 -21.9106 -0.647707 0.533381 28.1714 -3.07304 5.23214 31.2693 12.402 -7.36929 -41.0859 -7.51996 -3.12487 16.295 0.85569 7.87241 -91.8836 0.00394553 0.00895438 -146.022 15.3312 -6.99431 -44.3344 -3.71642 -3.5449 19.2791 -0.328672 -0.65072 -91.8836 0.00393566 0.00895012 
1.73456 86.9333 -7.65624 -2.9369 -77.2087 -96.6834 -13.2526 0.0531233 2.00484 11.6771 0.235402 0.00512415 0.391895 0.22973 -0.00799705 -9.1027 24.1019 96.1277 -38.6029 20.03 68.5133 -38.09 -6.73883 0.866206 -139.72 -68.7936 -121.884 170.576 19.7182 96.9702 -39.8703 24.8692 63.993 -42.3055 -6.80477 0.945055 -68.8417 -60.2518 -56.3914 -21.1165 -0.645658 0.589417 32.5009 -2.9322 5.40758 38.9491 11.304 -6.05491 -47.055 -5.97526 -3.85664 19.1219 1.07588 7.14918 -91.8836 0.00394553 0.00895438 -136.132 14.5786 -8.59852 -51.4451 -3.65137 -4.31512 20.7406 -0.0982611 -0.0714539 -91.8836 0.00393566 0.00895012 
2.30664 84.515 -9.35894 -5.67175 -72.568 -99.7853 -13.8999 0.305509 2.14728 11.3246 0.474535 -0.00345219 0.0370976 0.459575 -0.030552 -9.28958 24.7932 96.8316 -39.8003 22.9784 68.7307 -39.8789 -6.7662 0.900244 -138.429 -66.6507 -118.427 170.706 20.1604 96.8973 -35.1711 27.1905 62.1961 -47.0911 -6.88647 1.02824 -75.0249 -55.9463 -59.8857 -20.1285 -0.656401 0.666526 38.1699 -2.67044 5.77255 47.8115 10.5164 -5.52788 -54.0052 -3.78787 -4.64452 22.3729 1.30742 6.13148 -91.8836 0.00394553 0.00895438 -126.425 13.6301 -8.86393 -58.0816 -2.65253 -5.00784 22.24 -0.00605141 -0.348276 -91.8836 0.00393566 0.00895012 
2.79002 80.9906 -11.2064 -6.7034 -67.9582 -100.607 -14.7865 0.742457 1.82455 10.8163 0.663758 -0.0965657 -0.472956 0.635962 -0.135797 -9.34739 25.5604 97.2487 -40.7434 25.9577 69.8803 -39.704 -6.76339 0.896845 -139.582 -64.7739 -117.736 171.048 20.8603 96.3312 -30.9737 29.6676 61.8407 -49.4403 -6.92923 1.06668 -80.7264 -52.2402 -63.3705 -19.0473 -0.66215 0.673936 45.1769 -2.25461 6.14356 58.4695 9.41175 -5.71348 -63.3698 -1.26499 -5.53842 25.9639 1.60964 5.616 -91.8836 0.00394553 0.00895438 -116.237 12.4156 -7.90018 -65.9876 -0.70942 -5.76254 24.5832 -0.100641 -1.27244 -91.8836 0.00393566 0.00895012 
3.15499 76.8633 -13.1364 -5.70155 -63.4791 -99.6102 -15.8177 0.718527 1.60708 10.2063 0.706431 -0.187716 -1.08431 0.660308 -0.231546 -9.30087 26.2061 97.4274 -41.8267 28.603 71.9322 -36.5543 -6.71613 0.836233 -142.403 -62.9819 -118.837 171.538 21.7937 95.4545 -28.9199 32.5175 63.3447 -48.1967 -6.90634 1.0465 -86.4138 -49.4109 -66.9564 -17.986 -0.622332 0.591067 53.1807 -1.61336 6.34037 69.5596 7.93097 -5.44184 -72.916 1.098 -6.24997 28.9633 1.99651 6.27195 -91.8836 0.00394553 0.00895438 -105.406 11.0368 -7.31615 -74.6485 1.03296 -6.38934 26.9079 0.000127308 -0.889191 -91.8836 0.00393566 0.00895012 
3.49067 72.3858 -14.774 -3.98969 -59.2457 -97.939 -16.7733 0.35373 1.22031 9.65431 0.58014 -0.322305 -1.63586 0.51492 -0.359721 -9.28011 26.6766 97.6345 -42.4341 30.5273 74.5008 -30.3372 -6.6327 0.709179 -145.878 -63.3208 -120.057 171.949 22.7786 94.7878 -29.8106 35.4864 66.4072 -43.3279 -6.82167 0.963448 -91.8216 -47.4826 -70.4028 -17.0852 -0.534687 0.463783 61.483 -0.640883 6.45357 80.2026 6.2246 -4.48155 -81.9503 3.45283 -6.73626 31.6934 2.34755 7.01699 -91.8836 0.00394553 0.00895438 -94.6461 10.2796 -7.49155 -83.2579 2.13069 -6.77346 29.1332 0.147428 -0.729817 -91.8836 0.00393566 0.00895012 
3.82731 68.0149 -15.8992 -2.98064 -55.6498 -96.8626 -17.7314 -0.0762686 0.807391 9.10481 0.402526 -0.455251 -2.18342 0.325052 -0.482712 -9.35152 27.0212 97.9974 -42.5754 31.5694 76.7865 -22.6601 -6.54939 0.540966 -150.293 -66.0759 -121.72 172.053 23.6452 94.8004 -32.7945 37.5383 70.3371 -36.2799 -6.7118 0.830645 -96.9913 -46.529 -73.8079 -16.3562 -0.422648 0.274768 69.6984 0.435727 6.34415 89.4798 4.74236 -3.52378 -90.037 5.4763 -7.02453 34.0279 2.75736 8.04817 -91.8836 0.00394553 0.00895438 -85.0892 10.1214 -8.18685 -91.064 2.50241 -6.89819 31.2104 0.21255 -1.05919 -91.8836 0.00393566 0.00895012 
4.12699 64.133 -16.6171 -3.33362 -53.1339 -97.0994 -18.9241 -0.370045 0.739103 8.40277 0.320916 -0.441124 -2.88409 0.242989 -0.465429 -9.48208 27.2635 98.4354 -43.423 31.7492 78.5338 -15.9496 -6.49537 0.385953 -156.602 -68.0249 -125.833 171.82 24.38 95.5107 -33.3428 37.2354 73.0381 -29.3186 -6.62012 0.687354 -100.757 -46.9789 -75.462 -15.7678 -0.305373 0.0617436 77.6454 1.22019 5.65338 96.6704 3.72038 -3.21985 -96.8796 7.14178 -7.14731 36.0624 3.14771 8.99943 -91.8836 0.00394553 0.00895438 -77.6423 9.9992 -8.42926 -97.5249 2.75289 -6.85908 32.7768 0.124342 -1.47552 -91.8836 0.00393566 0.00895012 
4.34623 60.9769 -17.0071 -4.69284 -51.7702 -98.4646 -20.3184 -0.600512 1.1277 7.59305 0.346406 -0.217208 -3.69379 0.276525 -0.245788 -9.68754 27.3571 98.9699 -43.3621 30.2283 78.6008 -11.3778 -6.46906 0.277134 -161.943 -67.8305 -130.014 171.257 24.9536 96.8655 -31.7216 34.7224 73.809 -23.4437 -6.5567 0.558583 -105.466 -47.3915 -78.0342 -15.3461 -0.191571 -0.0494401 84.5551 1.56794 4.33697 101.483 2.9756 -3.36621 -102.293 8.76502 -7.2014 37.8009 3.50902 9.8552 -91.8836 0.00394553 0.00895438 -72.6828 9.59549 -7.40678 -102.469 3.85975 -6.78933 34.3285 -0.185302 -2.25527 -91.8836 0.00393566 0.00895012 
4.48042 58.8158 -16.9772 -6.43223 -51.3083 -100.266 -21.5471 -0.9225 1.67341 6.91216 0.346428 0.0945422 -4.37496 0.287278 0.0640288 -10.0244 27.2073 99.71 -42.4527 25.6733 76.2693 -8.10158 -6.45556 0.197999 -163.432 -66.2677 -130.862 170.282 25.0012 99.0114 -30.2535 29.6155 72.6659 -18.3141 -6.51219 0.441128 -111.204 -46.9133 -81.38 -15.1432 -0.0818412 -0.0354168 88.9178 1.73819 2.84787 103.831 2.17066 -3.19547 -106.027 10.9078 -7.27922 39.2866 3.85429 10.7017 -91.8836 0.00394553 0.00895438 -70.1132 8.86789 -5.35487 -105.809 5.78158 -6.76904 35.248 -0.421921 -2.46225 -91.8836 0.00393566 0.00895012 
